<svg width="1280" height="853" viewBox="0 0 1280 853" fill="none" xmlns="http://www.w3.org/2000/svg">
<rect width="1280" height="853" fill="url(#bg)"/>
<g opacity="0.18">
<circle cx="184" cy="146" r="186" fill="#F6E2BF"/>
<circle cx="1142" cy="731" r="232" fill="#9B6A4A"/>
</g>
<g opacity="0.3">
<path d="M67 703C280 625 521 617 791 680" stroke="#C89D56" stroke-width="4" stroke-linecap="round"/>
<path d="M150 762C431 676 706 687 1044 760" stroke="#8D613F" stroke-width="3" stroke-linecap="round"/>
</g>
<g transform="translate(182 202)">
<g transform="translate(36 128)">
<path d="M54 26C54 11.6406 65.6406 0 80 0H650C664.359 0 676 11.6406 676 26V290C676 304.359 664.359 316 650 316H80C65.6406 316 54 304.359 54 290V26Z" fill="#845734"/>
<path d="M0 72C0 57.6406 11.6406 46 26 46H596C610.359 46 622 57.6406 622 72V336C622 350.359 610.359 362 596 362H26C11.6406 362 0 350.359 0 336V72Z" fill="url(#sheetDark)"/>
<path d="M34 85C34 78.3726 39.3726 73 46 73H574C580.627 73 586 78.3726 586 85V323C586 329.627 580.627 335 574 335H46C39.3726 335 34 329.627 34 323V85Z" fill="url(#grainDark)"/>
</g>
<g transform="translate(92 68)">
<path d="M54 26C54 11.6406 65.6406 0 80 0H650C664.359 0 676 11.6406 676 26V290C676 304.359 664.359 316 650 316H80C65.6406 316 54 304.359 54 290V26Z" fill="#9A683F"/>
<path d="M0 72C0 57.6406 11.6406 46 26 46H596C610.359 46 622 57.6406 622 72V336C622 350.359 610.359 362 596 362H26C11.6406 362 0 350.359 0 336V72Z" fill="url(#sheetMid)"/>
<path d="M34 85C34 78.3726 39.3726 73 46 73H574C580.627 73 586 78.3726 586 85V323C586 329.627 580.627 335 574 335H46C39.3726 335 34 329.627 34 323V85Z" fill="url(#grainMid)"/>
</g>
<g>
<path d="M54 26C54 11.6406 65.6406 0 80 0H650C664.359 0 676 11.6406 676 26V290C676 304.359 664.359 316 650 316H80C65.6406 316 54 304.359 54 290V26Z" fill="#BF8752"/>
<path d="M0 72C0 57.6406 11.6406 46 26 46H596C610.359 46 622 57.6406 622 72V336C622 350.359 610.359 362 596 362H26C11.6406 362 0 350.359 0 336V72Z" fill="url(#sheetLight)"/>
<path d="M34 85C34 78.3726 39.3726 73 46 73H574C580.627 73 586 78.3726 586 85V323C586 329.627 580.627 335 574 335H46C39.3726 335 34 329.627 34 323V85Z" fill="url(#grainLight)"/>
<rect x="70" y="103" width="224" height="58" rx="29" fill="#2F2018" opacity="0.85"/>
<text x="182" y="140" text-anchor="middle" fill="#F5E4C8" font-family="Poppins, Arial, sans-serif" font-size="26" font-weight="700" letter-spacing="1.5">MR  BWR  MARINE</text>
</g>
</g>
<text x="114" y="118" fill="#F4E5CA" font-family="Poppins, Arial, sans-serif" font-size="28" font-weight="600" letter-spacing="6">AZIZ TRADERS</text>
<text x="114" y="159" fill="#4A2F22" font-family="Cormorant Garamond, Georgia, serif" font-size="84" font-weight="700">Premium Plywood</text>
<text x="114" y="213" fill="#6B4A36" font-family="Poppins, Arial, sans-serif" font-size="30">Moisture-resistant sheets for furniture, interiors, and structural work.</text>
<defs>
<linearGradient id="bg" x1="93" y1="51" x2="1182" y2="818" gradientUnits="userSpaceOnUse">
<stop stop-color="#3F281F"/>
<stop offset="0.52" stop-color="#7A533C"/>
<stop offset="1" stop-color="#E9D1A8"/>
</linearGradient>
<linearGradient id="sheetDark" x1="0" y1="46" x2="622" y2="408" gradientUnits="userSpaceOnUse">
<stop stop-color="#A8754B"/>
<stop offset="1" stop-color="#5A381F"/>
</linearGradient>
<linearGradient id="sheetMid" x1="0" y1="46" x2="622" y2="408" gradientUnits="userSpaceOnUse">
<stop stop-color="#C39161"/>
<stop offset="1" stop-color="#75492A"/>
</linearGradient>
<linearGradient id="sheetLight" x1="0" y1="46" x2="622" y2="408" gradientUnits="userSpaceOnUse">
<stop stop-color="#E2B37E"/>
<stop offset="1" stop-color="#8A5A37"/>
</linearGradient>
<pattern id="grainDark" width="160" height="120" patternUnits="userSpaceOnUse">
<rect width="160" height="120" fill="#8A5D39"/>
<path d="M-14 24C24 8 58 7 93 24C127 41 157 41 194 24" stroke="#C89667" stroke-width="4" stroke-linecap="round" opacity="0.45"/>
<path d="M-14 62C22 47 57 47 96 62C133 78 162 79 194 62" stroke="#5E3924" stroke-width="3" stroke-linecap="round" opacity="0.5"/>
<path d="M-14 100C24 85 61 84 101 100C136 115 166 116 194 100" stroke="#D4AA7A" stroke-width="4" stroke-linecap="round" opacity="0.4"/>
</pattern>
<pattern id="grainMid" width="160" height="120" patternUnits="userSpaceOnUse">
<rect width="160" height="120" fill="#AF7C53"/>
<path d="M-14 24C24 8 58 7 93 24C127 41 157 41 194 24" stroke="#F0CCA0" stroke-width="4" stroke-linecap="round" opacity="0.45"/>
<path d="M-14 62C22 47 57 47 96 62C133 78 162 79 194 62" stroke="#774726" stroke-width="3" stroke-linecap="round" opacity="0.45"/>
<path d="M-14 100C24 85 61 84 101 100C136 115 166 116 194 100" stroke="#FFDFAF" stroke-width="4" stroke-linecap="round" opacity="0.35"/>
</pattern>
<pattern id="grainLight" width="160" height="120" patternUnits="userSpaceOnUse">
<rect width="160" height="120" fill="#D6A06C"/>
<path d="M-14 24C24 8 58 7 93 24C127 41 157 41 194 24" stroke="#FFF0C5" stroke-width="4" stroke-linecap="round" opacity="0.5"/>
<path d="M-14 62C22 47 57 47 96 62C133 78 162 79 194 62" stroke="#955A33" stroke-width="3" stroke-linecap="round" opacity="0.45"/>
<path d="M-14 100C24 85 61 84 101 100C136 115 166 116 194 100" stroke="#F7E0B5" stroke-width="4" stroke-linecap="round" opacity="0.45"/>
</pattern>
</defs>
</svg>
