<svg width="1280" height="853" viewBox="0 0 1280 853" fill="none" xmlns="http://www.w3.org/2000/svg">
<rect width="1280" height="853" fill="url(#bg)"/>
<g opacity="0.14">
<circle cx="1118" cy="140" r="220" fill="#F4DCA8"/>
<circle cx="172" cy="720" r="202" fill="#C19157"/>
</g>
<g transform="translate(132 194)">
<circle cx="246" cy="84" r="22" fill="#5C3924"/>
<circle cx="246" cy="84" r="8" fill="#F2E3C1"/>
<g transform="rotate(-14 246 84)">
<rect x="104" y="108" width="296" height="420" rx="20" fill="#6C4933"/>
<rect x="126" y="130" width="252" height="376" rx="16" fill="url(#woodPattern)"/>
</g>
<g transform="rotate(-6 246 84)">
<rect x="188" y="86" width="312" height="438" rx="20" fill="#41312B"/>
<rect x="210" y="108" width="268" height="394" rx="16" fill="url(#stonePattern)"/>
</g>
<g>
<rect x="274" y="72" width="326" height="454" rx="20" fill="#5A3F34"/>
<rect x="296" y="94" width="282" height="410" rx="16" fill="url(#mattePattern)"/>
</g>
<g transform="rotate(8 246 84)">
<rect x="380" y="88" width="320" height="444" rx="20" fill="#724630"/>
<rect x="402" y="110" width="276" height="400" rx="16" fill="url(#marblePattern)"/>
</g>
</g>
<text x="110" y="114" fill="#8B623C" font-family="Poppins, Arial, sans-serif" font-size="28" font-weight="600" letter-spacing="6">AZIZ TRADERS</text>
<text x="110" y="170" fill="#3C271C" font-family="Cormorant Garamond, Georgia, serif" font-size="84" font-weight="700">Designer Laminates</text>
<text x="110" y="224" fill="#71533D" font-family="Poppins, Arial, sans-serif" font-size="30">Wood grain, marble, matte, and glossy textures for polished interiors.</text>
<defs>
<linearGradient id="bg" x1="63" y1="38" x2="1210" y2="824" gradientUnits="userSpaceOnUse">
<stop stop-color="#F8EBCF"/>
<stop offset="0.54" stop-color="#D4B081"/>
<stop offset="1" stop-color="#7F573E"/>
</linearGradient>
<pattern id="woodPattern" width="160" height="160" patternUnits="userSpaceOnUse">
<rect width="160" height="160" fill="#B68053"/>
<path d="M0 28C38 8 87 8 128 28C142 35 152 36 160 34" stroke="#F5D4A0" stroke-width="4" stroke-linecap="round" opacity="0.55"/>
<path d="M0 76C36 58 84 58 126 76C140 83 150 84 160 82" stroke="#7E4B2D" stroke-width="3" stroke-linecap="round" opacity="0.52"/>
<path d="M0 124C38 104 87 104 128 124C142 131 152 132 160 130" stroke="#FFDCAE" stroke-width="4" stroke-linecap="round" opacity="0.45"/>
</pattern>
<pattern id="stonePattern" width="180" height="180" patternUnits="userSpaceOnUse">
<rect width="180" height="180" fill="#C9C3BC"/>
<path d="M22 0C48 46 44 96 15 180" stroke="#817871" stroke-width="4" opacity="0.5"/>
<path d="M96 0C78 54 80 118 113 180" stroke="#F7F4F0" stroke-width="5" opacity="0.7"/>
<path d="M154 0C130 52 137 121 172 180" stroke="#8D837A" stroke-width="4" opacity="0.45"/>
</pattern>
<pattern id="mattePattern" width="140" height="140" patternUnits="userSpaceOnUse">
<rect width="140" height="140" fill="#6E5A50"/>
<rect x="12" y="12" width="116" height="116" rx="18" stroke="#9E867B" stroke-width="2" opacity="0.45"/>
<circle cx="38" cy="42" r="9" fill="#A78E81" opacity="0.65"/>
<circle cx="102" cy="92" r="11" fill="#B49C8E" opacity="0.45"/>
</pattern>
<pattern id="marblePattern" width="180" height="180" patternUnits="userSpaceOnUse">
<rect width="180" height="180" fill="#F3E8DB"/>
<path d="M26 0C82 55 86 126 34 180" stroke="#C49A72" stroke-width="4" opacity="0.6"/>
<path d="M108 0C69 64 86 121 140 180" stroke="#9A7258" stroke-width="3" opacity="0.5"/>
<path d="M154 0C124 53 119 111 170 180" stroke="#E5CAB0" stroke-width="5" opacity="0.7"/>
</pattern>
</defs>
</svg>
